# xmcd CD database file
#
# Track frame offsets:
#	225
#	2247
#	16196
#	29680
#	35303
#	50448
#	65163
#	76695
#	91310
#	105238
#	119186
#	135636
#	150237
#	164298
#	177555
#	194941
#	205552
#	217847
#	234121
#	247078
#	258958
#	264997
#	278296
#	283363
#
# Disc length: 3808 seconds
#
# Revision: 0
# Processed by: cddbd v1.4PL0 Copyright (c) Steve Scherf et al.
# Submitted via: CDex 1.50
#
DISCID=490edd18
DTITLE=Woody Herman and His Orchestra - Old Gold Rehersals 1944
DYEAR=2001
DGENRE=Jazz
TTITLE0=Blue Flame (Theme)
TTITLE1=Is you is or is you ain't my baby
TTITLE2=It must be jelly 'cause jam don't shake like that
TTITLE3=Woodchopper's ball
TTITLE4=G.I. Jive
TTITLE5=Red Top
TTITLE6=Yeh, Man (Amen)
TTITLE7=Noah
TTITLE8=Sweet Lorraine
TTITLE9=The golden wedding
TTITLE10=I've got the world on a string
TTITLE11=Jones Beachhead
TTITLE12=Four or five times
TTITLE13=Somebody loves me
TTITLE14=125th Street prophet
TTITLE15=T'ain't me
TTITLE16=There is no greater love
TTITLE17=Basie's basement
TTITLE18=There'll be a hot time in the town of Berlin
TTITLE19=1-2-3-4 Jump
TTITLE20=Old gold commercial
TTITLE21=Apple Honey
TTITLE22=Blues on parde
TTITLE23=Blue Flame (Theme)
EXTD=YEAR: 2001
EXTT0=
EXTT1=
EXTT2=
EXTT3=
EXTT4=
EXTT5=
EXTT6=
EXTT7=
EXTT8=
EXTT9=
EXTT10=
EXTT11=
EXTT12=
EXTT13=
EXTT14=
EXTT15=
EXTT16=
EXTT17=
EXTT18=
EXTT19=
EXTT20=
EXTT21=
EXTT22=
EXTT23=
PLAYORDER=
